<svg width="1023" height="402" viewBox="0 0 1023 402" fill="none" xmlns="http://www.w3.org/2000/svg">
<rect x="83.4623" y="16.7951" width="879.411" height="381" rx="190.5" transform="rotate(0.175868 83.4623 16.7951)" fill="#598963" stroke="#3F7250" stroke-width="2"/>
<path d="M70.8895 187.613C77.6654 185.692 82.8621 180.267 84.5532 173.517C87.2408 180.004 92.525 185.088 99.102 187.526C92.2157 189.293 86.5871 194.435 84.2626 201.256C82.4113 194.749 77.3472 189.591 70.8895 187.613Z" fill="white" stroke="black" stroke-width="2"/>
<path d="M951.157 212.317C957.932 210.395 963.129 204.97 964.82 198.22C967.508 204.707 972.792 209.791 979.369 212.229C972.483 213.996 966.854 219.138 964.53 225.959C962.678 219.452 957.614 214.294 951.157 212.317Z" fill="white" stroke="black" stroke-width="2"/>
<path d="M160.654 44.1488C180.427 41.2519 195.644 25.6135 198.353 6.22091C204.317 24.816 219.313 39.1634 238.138 44.3083C218.496 47.1945 202.339 61.9219 197.919 81.6508C194.808 62.5209 179.763 47.3808 160.654 44.1488Z" fill="white" stroke="black" stroke-width="2"/>
<path d="M867.456 338.32C887.23 335.423 902.447 319.784 905.156 300.392C911.12 318.987 926.115 333.334 944.941 338.479C925.299 341.365 909.142 356.093 904.721 375.822C901.611 356.692 886.566 341.552 867.456 338.32Z" fill="white" stroke="black" stroke-width="2"/>
<rect x="815.147" y="76.6529" width="206.674" height="44.8883" rx="22.4442" transform="rotate(0.175868 815.147 76.6529)" fill="#363636" stroke="white"/>
<rect x="822.634" y="82.7496" width="191.478" height="32.7414" rx="16.3707" transform="rotate(0.175868 822.634 82.7496)" fill="#363636" stroke="white"/>
<path d="M900.338 92.3386C899.617 92.6003 899.027 92.9945 898.57 93.5211C898.136 94.0238 897.666 94.8744 897.158 96.0728C896.964 96.5762 896.831 96.9598 896.758 97.2236C896.613 97.7271 896.467 98.3027 896.321 98.9503L896.284 99.2021L895.809 101.649L895.04 105.822C894.992 106.014 894.955 106.242 894.93 106.506C894.905 106.77 894.892 106.998 894.892 107.19C894.889 108.15 895.198 109.015 895.82 109.785L895.277 110.791C894.03 110.403 892.675 110.207 891.211 110.203C890.323 110.2 889.326 110.293 888.222 110.481L886.925 110.765L886.1 109.719C886.509 109.384 886.786 108.965 886.932 108.461C887.078 107.958 887.152 107.19 887.155 106.158C887.156 105.798 887.133 105.498 887.086 105.258C887.063 105.018 886.98 104.514 886.838 103.745C886.697 102.977 886.531 102.328 886.34 101.8C886.15 101.271 885.912 100.742 885.625 100.213C885.432 100.573 885.275 100.92 885.154 101.256C885.033 101.592 884.899 102.095 884.753 102.767L884.424 104.494L884.241 105.393L884.095 106.221C884.021 106.701 883.984 107.132 883.983 107.516C883.981 108.26 884.122 108.981 884.408 109.678L883.865 110.756C882.955 110.225 881.959 109.958 880.879 109.955C880.591 109.954 880.231 109.977 879.799 110.024C879.391 110.046 879.055 110.069 878.791 110.092C877.903 110.21 876.966 110.423 875.981 110.732L875.372 109.866C875.758 109.027 875.953 108.116 875.956 107.132C875.958 106.412 875.877 105.56 875.712 104.575C875.547 103.567 875.263 102.27 874.86 100.684C874.481 99.0992 874.196 97.9943 874.006 97.3698C873.816 96.7212 873.614 96.1445 873.399 95.6399C872.97 94.6786 872.576 93.9333 872.218 93.4042C871.86 92.8751 871.429 92.3818 870.927 91.9243L871.218 90.9172C871.961 91.1834 872.728 91.3778 873.52 91.5002C874.336 91.6227 875.271 91.6856 876.327 91.6888C877.503 91.6925 878.812 91.4925 880.253 91.0889L881.19 90.8038L881.763 91.9575C881.426 92.2445 881.161 92.5557 880.968 92.8911C880.775 93.2025 880.63 93.5021 880.533 93.7898C880.46 94.0535 880.423 94.4134 880.422 94.8694C880.42 95.5654 880.619 96.874 881.022 98.7953C881.116 99.3716 881.27 100.008 881.484 100.705C881.698 101.377 881.936 102.074 882.197 102.795C882.729 101.669 883.092 100.542 883.288 99.4143C883.678 97.4954 883.874 96.14 883.876 95.348C883.878 94.604 883.677 93.8474 883.271 93.0782L883.598 92.0352L884.858 92.255C885.553 92.3292 886.033 92.3786 886.297 92.4035C886.585 92.4283 887.017 92.4417 887.593 92.4434C888.913 92.4475 890.27 92.2836 891.663 91.9519L892.019 93.105C891.657 93.8239 891.475 94.5794 891.472 95.3714C891.471 95.5874 891.495 95.8394 891.542 96.1276C891.589 96.4157 891.648 96.7279 891.719 97.0641L892.04 98.1091L892.325 99.046L892.753 100.451L893.36 102.037L894.051 99.5193L894.088 99.2674L894.491 97.2166C894.661 96.3771 894.747 95.6694 894.749 95.0934C894.751 94.3734 894.525 93.7367 894.071 93.1833C893.856 92.8947 893.64 92.678 893.425 92.5333C893.233 92.3647 892.982 92.22 892.67 92.099L893.106 90.8403L893.825 91.0946C894.689 91.3372 895.564 91.4599 896.452 91.4626C897.124 91.4647 897.94 91.3712 898.901 91.1821L899.766 91.0048L900.338 92.3386ZM917.333 103.803C917.499 104.283 917.582 104.788 917.58 105.316C917.578 105.868 917.468 106.467 917.25 107.115C916.887 108.193 916.297 109.032 915.479 109.629C914.685 110.203 913.508 110.607 911.947 110.842C911.371 110.937 910.699 110.982 909.931 110.98C908.515 110.976 907.255 110.756 906.153 110.32C905.074 109.861 903.996 109.162 902.919 108.223L901.806 107.139L901.304 106.526C901.738 106.047 902.039 105.556 902.209 105.052C902.378 104.525 902.561 103.577 902.757 102.21C902.806 101.97 902.831 101.574 902.833 101.022C902.835 100.47 902.848 100.002 902.873 99.6184L902.877 98.3944L902.843 97.7103L902.813 95.8022C902.669 95.7777 902.429 95.765 902.093 95.764C901.301 95.7615 900.617 95.9274 900.04 96.2617L899.323 95.0355C900.045 94.3897 900.815 93.948 901.632 93.7105C902.016 93.6157 902.304 93.5686 902.496 93.5692C902.521 93.3293 902.533 93.1253 902.534 92.9573C902.558 92.7654 902.571 92.6214 902.571 92.5254C902.572 92.1174 902.538 91.7333 902.467 91.3731C902.254 90.2924 902.064 89.5478 901.898 89.1393C901.731 88.7308 901.468 88.406 901.109 88.1649L901.545 86.7262C901.977 86.7996 902.301 86.8486 902.517 86.8732C902.732 86.8979 903.044 86.9108 903.452 86.9121C904.868 86.9164 906.633 86.5738 908.748 85.8843L909.901 85.4199L911.087 86.1075L910.327 87.3292C910.11 87.7845 909.94 88.264 909.819 88.7676C909.697 89.2713 909.599 89.907 909.525 90.6747L909.413 91.8264L909.375 92.4383C909.927 92.56 910.431 92.6215 910.887 92.6229C911.991 92.6263 913.072 92.3656 914.129 91.8409C914.298 91.7454 914.418 91.6858 914.49 91.662C914.634 91.5904 914.815 91.459 915.031 91.2676C915.437 91.9409 915.639 92.6495 915.637 93.3935C915.631 95.0975 915.136 96.308 914.149 97.025C913.596 97.3833 913.056 97.5616 912.528 97.56C912.312 97.5593 912.048 97.5345 911.736 97.4856C911.448 97.4367 911.196 97.3999 910.98 97.3752L909.145 97.0816L909.121 104.966L909.403 106.838C909.521 107.727 909.687 108.315 909.902 108.604C910.141 108.869 910.561 109.002 911.161 109.004C911.569 109.005 911.929 108.886 912.242 108.647C912.554 108.408 912.735 108.109 912.785 107.749C912.858 107.365 912.895 107.053 912.895 106.813C912.898 106.021 912.587 105.6 911.963 105.55C911.363 105.476 911.028 105.415 910.956 105.367C910.788 105.247 910.621 104.994 910.454 104.61C910.311 104.225 910.24 103.865 910.241 103.529C910.243 102.953 910.461 102.45 910.894 102.019C911.327 101.588 911.964 101.302 912.805 101.161C913.189 101.114 913.477 101.091 913.669 101.092C915.109 101.096 916.223 101.771 917.011 103.118L917.333 103.803ZM935.403 103.858C935.569 104.339 935.652 104.843 935.65 105.371C935.649 105.923 935.539 106.523 935.321 107.17C934.957 108.249 934.367 109.087 933.549 109.685C932.755 110.258 931.578 110.663 930.017 110.898C929.441 110.992 928.769 111.038 928.001 111.036C926.585 111.031 925.325 110.811 924.223 110.376C923.144 109.917 922.066 109.217 920.989 108.278L919.877 107.195L919.374 106.581C919.808 106.102 920.109 105.611 920.279 105.108C920.449 104.58 920.631 103.633 920.828 102.265C920.876 102.026 920.902 101.63 920.903 101.078C920.905 100.526 920.918 100.058 920.944 99.6738L920.947 98.4498L920.914 97.7657L920.883 95.8576C920.739 95.8332 920.499 95.8205 920.163 95.8194C919.371 95.817 918.687 95.9829 918.11 96.3171L917.394 95.0909C918.116 94.4451 918.885 94.0035 919.702 93.766C920.086 93.6712 920.374 93.6241 920.566 93.6246C920.591 93.3847 920.604 93.1808 920.604 93.0128C920.629 92.8208 920.641 92.6769 920.641 92.5809C920.643 92.1729 920.608 91.7888 920.537 91.4285C920.324 90.3479 920.135 89.6033 919.968 89.1948C919.801 88.7863 919.538 88.4615 919.179 88.2204L919.615 86.7817C920.047 86.855 920.371 86.904 920.587 86.9287C920.803 86.9533 921.115 86.9663 921.523 86.9676C922.939 86.9719 924.704 86.6293 926.818 85.9398L927.971 85.4753L929.157 86.163L928.397 87.3847C928.18 87.84 928.011 88.3195 927.889 88.8231C927.767 89.3267 927.669 89.9624 927.595 90.7302L927.484 91.8819L927.446 92.4938C927.997 92.6155 928.501 92.677 928.957 92.6784C930.061 92.6818 931.142 92.4211 932.2 91.8963C932.368 91.8009 932.488 91.7412 932.56 91.7175C932.704 91.6459 932.885 91.5145 933.101 91.3231C933.507 91.9964 933.709 92.705 933.707 93.449C933.702 95.153 933.206 96.3635 932.22 97.0804C931.667 97.4387 931.126 97.6171 930.598 97.6155C930.382 97.6148 930.118 97.59 929.806 97.541C929.518 97.4921 929.267 97.4554 929.051 97.4307L927.215 97.1371L927.191 105.021L927.474 106.894C927.591 107.782 927.757 108.371 927.972 108.659C928.211 108.924 928.631 109.057 929.231 109.059C929.639 109.061 929.999 108.942 930.312 108.703C930.625 108.464 930.806 108.164 930.855 107.804C930.928 107.421 930.965 107.109 930.966 106.869C930.968 106.077 930.657 105.656 930.033 105.606C929.434 105.532 929.098 105.471 929.026 105.423C928.858 105.302 928.691 105.05 928.524 104.665C928.382 104.281 928.311 103.92 928.312 103.584C928.313 103.008 928.531 102.505 928.964 102.074C929.398 101.644 930.035 101.358 930.875 101.216C931.259 101.17 931.547 101.146 931.739 101.147C933.179 101.151 934.293 101.827 935.081 103.173L935.403 103.858ZM958.666 100.942C958.661 102.622 958.477 104.001 958.114 105.08C957.75 106.135 957.171 107.105 956.377 107.991C955.389 109.092 954.103 109.868 952.517 110.319C951.677 110.532 950.884 110.638 950.14 110.636C948.364 110.63 946.758 110.061 945.322 108.929L945.138 110.224C945.133 111.712 945.285 112.937 945.594 113.898C945.927 114.883 946.501 115.736 947.315 116.459L946.591 117.717C945.944 117.379 945.164 117.148 944.253 117.025C943.341 116.927 942.105 116.875 940.545 116.87C939.369 116.986 938.204 117.259 937.051 117.687L936.192 116.137C936.769 115.706 937.19 115.192 937.456 114.593C937.746 113.993 938.025 112.95 938.294 111.463C938.343 111.103 938.405 110.515 938.479 109.7C938.554 108.884 938.592 108.176 938.594 107.576L938.598 106.316L938.602 104.948L938.605 103.796L938.574 102.356C938.577 101.372 938.567 100.664 938.544 100.232C938.522 99.7758 938.475 99.2356 938.405 98.6114C938.22 96.3788 937.997 94.8662 937.735 94.0734C937.474 93.2565 937.02 92.5711 936.374 92.0172L937.169 90.8316C937.936 91.146 938.644 91.3761 939.291 91.5221C939.939 91.6441 940.683 91.7064 941.523 91.709C942.435 91.7118 944.019 91.6206 946.275 91.4356L947.68 91.2959C947.824 91.2723 947.968 91.2607 948.112 91.2612C948.304 91.2618 948.436 91.2622 948.508 91.2624C948.892 91.2636 949.168 91.2644 949.336 91.2649C950.032 91.2671 950.608 91.3168 951.063 91.4142C951.519 91.5116 952.083 91.6934 952.754 91.9594C954.024 92.5153 955.054 93.1905 955.844 93.9849C956.657 94.7554 957.326 95.7535 957.85 96.9791C958.399 98.2048 958.671 99.5256 958.666 100.942ZM951.035 100.594L951.036 100.198L951.003 99.4061C951.005 98.7821 950.982 98.254 950.936 97.8219C950.889 97.3897 950.842 97.0416 950.795 96.7774C950.654 95.913 950.512 95.2646 950.369 94.8321C950.226 94.3757 950.036 94.0031 949.796 93.7144C949.438 93.2813 948.946 93.0638 948.322 93.0618C947.554 93.0595 946.929 93.3816 946.447 94.0281C946.231 94.3154 946.049 94.6869 945.904 95.1424C945.783 95.5981 945.673 96.2097 945.574 96.9774L945.464 97.8411L945.313 99.9286L945.412 102.845C945.528 104.165 945.657 105.114 945.8 105.69C945.966 106.267 946.228 106.771 946.587 107.205C947.089 107.782 947.688 108.072 948.384 108.074C948.792 108.075 949.129 107.968 949.393 107.753C949.754 107.466 950.031 107.059 950.225 106.532C950.443 106.004 950.661 105.153 950.881 103.978C950.93 103.618 950.968 103.126 950.993 102.502C951.019 101.878 951.033 101.242 951.035 100.594Z" fill="white"/>
<rect x="0.639332" y="287.043" width="206.674" height="44.8883" rx="22.4442" transform="rotate(0.175868 0.639332 287.043)" fill="#363636" stroke="white"/>
<rect x="8.12664" y="293.139" width="191.478" height="32.7414" rx="16.3707" transform="rotate(0.175868 8.12664 293.139)" fill="#363636" stroke="white"/>
<path d="M82.1832 294.621C82.3017 295.102 82.3603 295.546 82.3591 295.954C82.3573 296.53 82.2354 297.153 81.9933 297.825C81.485 299.215 80.7378 300.281 79.7515 301.022C78.7892 301.763 77.5521 302.131 76.0401 302.126L75.2121 302.124L75.2034 304.968L75.1947 307.776L75.2578 310.692L75.2922 311.196L75.4292 313.501C75.4245 315.037 75.5771 316.141 75.887 316.814C76.1969 317.487 76.8665 318.269 77.8958 319.16L78.3986 319.558L77.7089 321.428L77.2053 321.282L76.558 321.064L76.0544 320.919L75.371 320.736C74.1959 320.421 73.0924 320.261 72.0604 320.258C71.5804 320.257 71.0523 320.291 70.4761 320.361L68.7115 320.536C67.7032 320.653 67.0189 320.747 66.6587 320.818C66.2984 320.913 65.8178 321.091 65.217 321.353L64.2509 319.442C65.693 318.751 66.5485 317.625 66.8173 316.066C67.11 314.507 67.2662 310.548 67.2857 304.188L67.1831 302.423L67.1485 301.991L67.0434 301.019C66.8277 300.946 66.6239 300.886 66.432 300.837C66.2642 300.764 66.0244 300.704 65.7126 300.655C65.4008 300.582 64.9809 300.532 64.453 300.507C63.9491 300.481 63.4931 300.468 63.0851 300.467C61.8371 300.463 60.8886 300.64 60.2395 300.998C59.5904 301.356 59.1569 301.823 58.9392 302.398C58.7455 302.949 58.648 303.429 58.6468 303.837C58.6457 304.173 58.7048 304.461 58.8241 304.702C59.0865 305.23 59.5057 305.496 60.0817 305.497C60.3217 305.498 60.5739 305.427 60.8383 305.284C61.1028 305.117 61.2357 304.841 61.2369 304.457C61.2372 304.337 61.1897 304.181 61.0943 303.989C60.9033 303.676 60.6157 303.519 60.2317 303.518C60.3288 303.182 60.5337 302.883 60.8465 302.62C61.2555 302.285 61.772 302.119 62.396 302.121C62.66 302.121 63.008 302.146 63.4398 302.196C63.8717 302.245 64.2909 302.51 64.6974 302.992C65.128 303.449 65.3422 304.038 65.34 304.758C65.3386 305.214 65.2531 305.681 65.0837 306.161C64.8173 306.928 64.3835 307.527 63.7821 307.957C63.1809 308.363 62.3883 308.565 61.4043 308.562C60.1563 308.558 59.1135 308.171 58.2758 307.4C57.4382 306.605 56.8659 305.428 56.5587 303.867C56.4641 303.41 56.4176 302.894 56.4194 302.318C56.4203 302.03 56.433 301.814 56.4574 301.67C56.7526 299.319 57.718 297.57 59.3535 296.423C61.1093 295.205 63.7391 294.601 67.2431 294.611C68.0591 294.614 68.6231 294.628 68.935 294.653C69.2709 294.678 69.9667 294.764 71.0222 294.911L71.9218 295.058L73.757 295.315L74.8365 295.463C75.6763 295.537 76.4202 295.576 77.0682 295.578C78.8922 295.583 80.5972 295.264 82.1832 294.621ZM119.69 296.86C118.416 297.505 117.394 298.389 116.622 299.515C115.851 300.617 115.162 302.223 114.555 304.333L114.446 304.728L113.791 307.246L112.99 310.052L112.661 311.743L112.587 312.211L112.295 313.47L112.149 314.153C112.075 314.801 112.038 315.305 112.037 315.665C112.036 315.857 112.036 315.989 112.035 316.061C112.033 316.997 112.138 317.717 112.353 318.222C112.591 318.727 112.962 319.16 113.465 319.521L112.991 321.464L111.588 321.244C110.268 321.048 109.201 320.924 108.385 320.874C107.593 320.799 106.789 320.761 105.973 320.758C105.277 320.756 104.605 320.814 103.956 320.932C103.308 321.074 102.599 321.252 101.831 321.466L101.297 319.52C101.826 319.186 102.211 318.779 102.453 318.3C102.694 317.82 102.816 317.173 102.819 316.357C102.82 315.709 102.763 315.049 102.645 314.376C102.527 313.704 102.313 312.803 102.005 311.674C101.648 310.545 101.291 309.608 100.933 308.863L100.791 308.43L100.576 307.998C100.335 308.405 100.166 308.741 100.069 309.004L99.5971 310.299L99.4516 310.766L98.9796 312.097C98.8827 312.385 98.8099 312.624 98.7613 312.816C98.5917 313.368 98.4825 313.739 98.4339 313.931L98.3239 314.579C98.2019 315.251 98.1164 315.742 98.0674 316.054C98.0425 316.366 98.0295 316.69 98.0284 317.026C98.0261 317.77 98.348 318.479 98.9939 319.153L99.2809 319.478L98.6265 321.564C97.9075 321.226 97.1763 320.971 96.4328 320.801C95.7133 320.631 94.8976 320.544 93.9856 320.542C93.6976 320.541 93.4216 320.54 93.1576 320.539C92.8936 320.538 92.5695 320.561 92.1854 320.608C91.4174 320.606 90.613 320.723 89.7723 320.961C89.5321 321.032 89.0516 321.198 88.3308 321.46L87.834 319.119C88.2908 318.832 88.6159 318.485 88.8092 318.078C89.0265 317.646 89.1363 317.059 89.1386 316.315C89.1417 315.307 88.9416 314.022 88.5384 312.461L88.0052 310.227L87.8985 309.831L87.364 308.029L86.687 305.759L86.4729 305.11L86.3659 304.786L85.3303 302.047L85.0447 301.29L84.7951 300.497C84.4145 299.392 83.9731 298.539 83.4709 297.937C82.9688 297.336 82.3342 296.878 81.5672 296.563L82.2927 294.766C82.7959 295.007 83.2874 295.189 83.767 295.31C84.2707 295.408 84.9066 295.458 85.6746 295.46L87.1143 295.536L87.7262 295.574C88.2542 295.576 88.6382 295.577 88.8782 295.578C89.3822 295.579 89.8622 295.569 90.3183 295.546C90.7984 295.524 91.2665 295.477 91.7228 295.407C92.179 295.336 92.6232 295.265 93.0554 295.195C93.4876 295.124 93.92 295.017 94.3524 294.875L95.2116 296.425C94.1529 297.31 93.6215 298.436 93.6173 299.804C93.6165 300.044 93.6277 300.308 93.6508 300.596C93.6739 300.885 93.7211 301.173 93.7922 301.461L94.3598 304.199C94.7627 305.856 95.1067 307.153 95.3918 308.09C95.701 309.027 96.0582 309.928 96.4635 310.793L96.9717 309.427L97.5542 307.341L97.8086 306.549L98.3174 304.967L98.536 304.14C98.7797 302.94 98.9026 301.969 98.9049 301.225C98.9081 300.193 98.5269 299.291 97.7612 298.521L97.3304 298.124L98.0909 296.686C99.3132 297.218 100.968 297.487 103.056 297.493L104.209 297.425L106.694 297.037L106.982 297.001L107.918 296.86L108.49 298.374C108.129 298.685 107.864 299.02 107.695 299.38C107.526 299.715 107.44 300.147 107.439 300.675C107.437 301.251 107.542 302.031 107.755 303.016L107.897 303.736L108.182 304.817L108.503 305.898C109.001 307.604 109.549 309.165 110.144 310.583C110.484 309.456 110.739 308.521 110.909 307.778L111.055 307.202L111.384 305.547L111.567 304.396L111.787 303.244C111.86 302.908 111.909 302.561 111.934 302.201C111.959 301.841 111.972 301.469 111.973 301.085C111.975 300.629 111.952 300.305 111.904 300.113C111.692 298.912 111.371 298.107 110.94 297.698L109.647 296.794L109.467 296.649L108.964 296.287L109.797 294.85C111.139 295.262 112.339 295.47 113.395 295.473L115.231 295.407C116.287 295.41 116.983 295.388 117.319 295.341C117.655 295.294 118.124 295.14 118.725 294.877L119.69 296.86ZM147.759 320.023L146.998 321.532L146.099 321.242C144.972 320.854 144.025 320.623 143.257 320.549C142.489 320.451 141.446 320.399 140.126 320.395C139.286 320.393 138.505 320.486 137.785 320.676C137.064 320.866 136.307 321.14 135.514 321.497L134.043 320.089L134.223 319.873L134.621 319.442C135.102 318.892 135.416 318.389 135.561 317.933C135.731 317.454 135.817 316.794 135.819 315.954L135.821 315.27L135.786 315.162L135.538 313.685L135.467 313.433L135.29 312.496L135.001 312.891C134.422 313.586 133.893 314.076 133.412 314.363C132.931 314.649 132.379 314.791 131.755 314.79C131.443 314.789 131.047 314.751 130.567 314.678C130.111 314.604 129.584 314.399 128.985 314.061L128.267 313.555L128.155 314.778C128.148 316.962 129.199 318.598 131.308 319.684L131.703 319.865L130.726 321.446L129.612 320.975C128.893 320.709 128.113 320.526 127.273 320.428C126.434 320.305 125.63 320.243 124.862 320.24C123.854 320.237 123.122 320.331 122.665 320.522C122.233 320.688 121.836 320.999 121.474 321.454L120.075 320.046L120.869 319.22C121.857 318.095 122.616 317.101 123.146 316.239C123.701 315.353 124.16 314.43 124.523 313.471C124.789 312.68 124.984 311.925 125.106 311.205C124.699 310.844 124.267 310.663 123.811 310.661C122.971 310.659 122.37 311.065 122.008 311.88L121.79 312.491C120.495 311.959 119.851 310.853 119.856 309.173C119.857 308.837 119.894 308.453 119.968 308.021C120.041 307.59 120.186 307.206 120.403 306.871C120.862 306.056 121.439 305.458 122.137 305.076C122.858 304.67 123.758 304.469 124.838 304.472C125.054 304.473 125.318 304.498 125.63 304.547C125.942 304.572 126.182 304.596 126.35 304.621L126.818 304.73L127.145 303.795C127.557 302.357 127.765 301.145 127.768 300.161C127.771 299.009 127.438 297.952 126.769 296.99L126.196 296.304L127.099 295.011C128.154 295.422 128.993 295.677 129.617 295.775C130.241 295.873 131.009 295.923 131.921 295.926C132.065 295.95 132.197 295.963 132.317 295.963C132.461 295.964 132.617 295.964 132.785 295.965C133.049 295.965 133.325 295.966 133.613 295.967C133.901 295.968 134.213 295.957 134.549 295.934L135.377 295.865L136.385 295.796C137.345 295.799 138.209 295.681 138.978 295.444C139.026 295.42 139.471 295.253 140.312 294.944L141.496 296.171L141.135 296.602C140.605 297.297 140.338 298.064 140.336 298.904C140.333 299.648 140.509 301.064 140.863 303.153C141.027 304.258 141.323 305.519 141.751 306.936L142.642 309.819L142.963 310.792L143.533 312.702C143.89 313.831 144.247 314.804 144.604 315.621C144.962 316.414 145.392 317.159 145.893 317.857C146.156 318.242 146.443 318.615 146.754 318.976C147.065 319.337 147.4 319.686 147.759 320.023ZM134.434 309.794C134.459 309.578 134.448 309.326 134.4 309.038C134.353 308.725 134.247 308.257 134.081 307.633L133.583 305.651L133.547 305.507L133.191 304.318L132.942 303.453L131.656 299.921L130.72 299.954L130.574 300.638L130.428 301.465L130.281 302.329L130.135 303.048L129.734 304.559C129.516 305.279 129.406 305.782 129.406 306.07C129.405 306.334 129.464 306.574 129.583 306.791C129.751 307.007 129.882 307.188 129.978 307.332L130.945 308.703L131.053 308.883L132.057 310.182C132.272 310.471 132.559 310.688 132.919 310.833C133.063 310.906 133.219 310.942 133.387 310.943C133.651 310.943 133.891 310.836 134.108 310.621C134.324 310.405 134.433 310.13 134.434 309.794Z" fill="white"/>
</svg>
