<svg width="1020" height="413" viewBox="0 0 1020 413" fill="none" xmlns="http://www.w3.org/2000/svg">
<g filter="url(#filter0_d_1660_560)">
<rect x="82.2329" y="15.793" width="878.902" height="383" rx="191.5" transform="rotate(0.175868 82.2329 15.793)" fill="#EAD0AD"/>
<rect x="83.2298" y="16.796" width="876.902" height="381" rx="190.5" transform="rotate(0.175868 83.2298 16.796)" stroke="#DBAC82" stroke-width="2"/>
</g>
<path d="M70.6595 187.617C77.4304 185.691 82.6224 180.268 84.3136 173.522C86.9948 180 92.2656 185.079 98.8282 187.523C91.9504 189.285 86.3308 194.425 84.0198 201.242C82.1659 194.745 77.1082 189.595 70.6595 187.617Z" fill="white" stroke="black" stroke-width="2"/>
<path d="M948.421 212.312C955.192 210.387 960.384 204.964 962.075 198.217C964.756 204.695 970.027 209.775 976.589 212.218C969.712 213.981 964.092 219.12 961.781 225.937C959.927 219.44 954.869 214.291 948.421 212.312Z" fill="white" stroke="black" stroke-width="2"/>
<path d="M160.136 44.1557C179.888 41.2362 195.082 25.6061 197.792 6.22846C203.739 24.7985 218.696 39.1362 237.483 44.3033C217.862 47.1791 201.728 61.9088 197.355 81.6304C194.239 62.5243 179.218 47.4021 160.136 44.1557Z" fill="white" stroke="black" stroke-width="2"/>
<path d="M864.924 338.321C884.676 335.401 899.87 319.771 902.58 300.393C908.527 318.963 923.484 333.301 942.271 338.468C922.65 341.344 906.516 356.074 902.143 375.795C899.027 356.689 884.006 341.567 864.924 338.321Z" fill="white" stroke="black" stroke-width="2"/>
<rect x="812.83" y="76.647" width="206.083" height="44.8883" rx="22.4442" transform="rotate(0.175868 812.83 76.647)" fill="#363636" stroke="white"/>
<rect x="820.295" y="82.7437" width="190.93" height="32.7414" rx="16.3707" transform="rotate(0.175868 820.295 82.7437)" fill="#363636" stroke="white"/>
<path d="M897.859 92.3327C897.138 92.5945 896.548 92.9887 896.091 93.5153C895.657 94.0179 895.187 94.8685 894.679 96.067C894.485 96.5704 894.352 96.954 894.279 97.2177C894.134 97.7213 893.988 98.2968 893.842 98.9444L893.805 99.1963L893.33 101.643L892.561 105.816C892.513 106.008 892.476 106.236 892.451 106.5C892.426 106.764 892.413 106.992 892.413 107.184C892.41 108.144 892.719 109.009 893.341 109.779L892.798 110.785C891.551 110.397 890.196 110.201 888.732 110.197C887.844 110.194 886.847 110.287 885.743 110.476L884.446 110.76L883.621 109.713C884.03 109.378 884.307 108.959 884.453 108.456C884.598 107.952 884.673 107.184 884.676 106.152C884.677 105.792 884.654 105.492 884.607 105.252C884.584 105.012 884.501 104.508 884.359 103.739C884.218 102.971 884.052 102.322 883.861 101.794C883.671 101.265 883.433 100.736 883.146 100.208C882.953 100.567 882.796 100.914 882.675 101.25C882.554 101.586 882.42 102.089 882.274 102.761L881.945 104.488L881.762 105.387L881.616 106.215C881.542 106.695 881.505 107.127 881.504 107.511C881.502 108.255 881.643 108.975 881.929 109.672L881.386 110.75C880.476 110.219 879.48 109.952 878.4 109.949C878.112 109.948 877.752 109.971 877.32 110.018C876.912 110.04 876.576 110.063 876.312 110.087C875.424 110.204 874.487 110.417 873.502 110.726L872.893 109.86C873.279 109.021 873.474 108.11 873.477 107.126C873.479 106.406 873.398 105.554 873.233 104.569C873.068 103.561 872.784 102.264 872.381 100.679C872.002 99.0934 871.717 97.9885 871.527 97.3639C871.337 96.7153 871.135 96.1387 870.92 95.634C870.491 94.6727 870.097 93.9275 869.739 93.3984C869.381 92.8693 868.95 92.376 868.448 91.9184L868.739 90.9113C869.482 91.1776 870.249 91.3719 871.041 91.4944C871.857 91.6169 872.792 91.6797 873.848 91.683C875.024 91.6866 876.333 91.4866 877.774 91.083L878.711 90.7979L879.284 91.9517C878.947 92.2386 878.682 92.5498 878.489 92.8852C878.296 93.1966 878.151 93.4962 878.054 93.7839C877.981 94.0477 877.944 94.4076 877.943 94.8636C877.941 95.5596 878.14 96.8682 878.543 98.7894C878.637 99.3657 878.791 100.002 879.005 100.699C879.219 101.372 879.457 102.068 879.718 102.789C880.25 101.663 880.613 100.536 880.809 99.4084C881.199 97.4896 881.395 96.1342 881.397 95.3422C881.399 94.5982 881.198 93.8416 880.792 93.0723L881.119 92.0293L882.379 92.2492C883.074 92.3233 883.554 92.3728 883.818 92.3976C884.106 92.4225 884.538 92.4358 885.114 92.4376C886.434 92.4416 887.791 92.2778 889.184 91.9461L889.54 93.0992C889.178 93.8181 888.996 94.5735 888.993 95.3655C888.992 95.5815 889.016 95.8336 889.063 96.1217C889.11 96.4099 889.169 96.722 889.24 97.0583L889.561 98.1032L889.846 99.0401L890.274 100.445L890.881 102.031L891.572 99.5134L891.609 99.2615L892.012 97.2108C892.182 96.3713 892.268 95.6635 892.27 95.0876C892.272 94.3676 892.046 93.7309 891.592 93.1775C891.377 92.8888 891.161 92.6721 890.946 92.5275C890.754 92.3589 890.503 92.2141 890.191 92.0932L890.627 90.8345L891.346 91.0887C892.21 91.3313 893.085 91.454 893.973 91.4568C894.645 91.4588 895.461 91.3653 896.422 91.1763L897.287 90.9989L897.859 92.3327ZM914.854 103.797C915.02 104.277 915.103 104.782 915.101 105.31C915.099 105.862 914.989 106.461 914.771 107.109C914.408 108.188 913.818 109.026 913 109.623C912.206 110.197 911.029 110.601 909.468 110.836C908.892 110.931 908.22 110.977 907.452 110.974C906.036 110.97 904.776 110.75 903.674 110.315C902.595 109.855 901.517 109.156 900.44 108.217L899.327 107.133L898.825 106.52C899.259 106.041 899.56 105.55 899.73 105.046C899.899 104.519 900.082 103.572 900.278 102.204C900.327 101.964 900.352 101.568 900.354 101.016C900.356 100.464 900.369 99.9964 900.394 99.6125L900.398 98.3885L900.364 97.7044L900.334 95.7963C900.19 95.7719 899.95 95.7591 899.614 95.7581C898.822 95.7557 898.138 95.9216 897.561 96.2558L896.844 95.0296C897.566 94.3838 898.336 93.9422 899.153 93.7047C899.537 93.6098 899.825 93.5627 900.017 93.5633C900.042 93.3234 900.054 93.1194 900.055 92.9514C900.079 92.7595 900.092 92.6155 900.092 92.5195C900.093 92.1116 900.059 91.7274 899.988 91.3672C899.775 90.2866 899.585 89.542 899.419 89.1335C899.252 88.725 898.989 88.4001 898.63 88.159L899.066 86.7204C899.498 86.7937 899.822 86.8427 900.038 86.8674C900.253 86.892 900.565 86.905 900.973 86.9062C902.389 86.9106 904.154 86.568 906.269 85.8785L907.422 85.414L908.608 86.1017L907.848 87.3233C907.631 87.7787 907.461 88.2581 907.34 88.7618C907.218 89.2654 907.12 89.9011 907.046 90.6689L906.934 91.8205L906.896 92.4324C907.448 92.5541 907.952 92.6157 908.408 92.6171C909.512 92.6205 910.593 92.3598 911.65 91.835C911.819 91.7395 911.939 91.6799 912.011 91.6561C912.155 91.5846 912.336 91.4531 912.552 91.2618C912.958 91.935 913.16 92.6437 913.158 93.3877C913.152 95.0916 912.657 96.3021 911.67 97.0191C911.117 97.3774 910.577 97.5558 910.049 97.5541C909.833 97.5535 909.569 97.5287 909.257 97.4797C908.969 97.4308 908.717 97.394 908.501 97.3694L906.666 97.0757L906.642 104.96L906.924 106.833C907.042 107.721 907.208 108.309 907.423 108.598C907.662 108.863 908.082 108.996 908.682 108.998C909.09 108.999 909.45 108.88 909.763 108.641C910.075 108.402 910.256 108.103 910.306 107.743C910.379 107.359 910.416 107.047 910.416 106.807C910.419 106.015 910.108 105.594 909.484 105.544C908.884 105.471 908.549 105.41 908.477 105.361C908.309 105.241 908.142 104.988 907.975 104.604C907.832 104.219 907.761 103.859 907.762 103.523C907.764 102.947 907.982 102.444 908.415 102.013C908.848 101.582 909.485 101.296 910.326 101.155C910.71 101.108 910.998 101.085 911.19 101.086C912.63 101.09 913.744 101.765 914.532 103.112L914.854 103.797ZM932.924 103.852C933.09 104.333 933.173 104.837 933.171 105.365C933.17 105.917 933.06 106.517 932.842 107.164C932.478 108.243 931.888 109.081 931.07 109.679C930.276 110.252 929.099 110.657 927.538 110.892C926.962 110.986 926.29 111.032 925.522 111.03C924.106 111.025 922.846 110.805 921.744 110.37C920.665 109.911 919.587 109.211 918.51 108.272L917.398 107.189L916.895 106.575C917.329 106.097 917.63 105.605 917.8 105.102C917.97 104.574 918.152 103.627 918.349 102.26C918.397 102.02 918.423 101.624 918.424 101.072C918.426 100.52 918.439 100.052 918.465 99.668L918.468 98.444L918.435 97.7599L918.404 95.8518C918.26 95.8273 918.02 95.8146 917.684 95.8136C916.892 95.8111 916.208 95.977 915.631 96.3113L914.915 95.0851C915.637 94.4393 916.406 93.9976 917.223 93.7601C917.607 93.6653 917.895 93.6182 918.087 93.6188C918.112 93.3789 918.125 93.1749 918.125 93.0069C918.15 92.815 918.162 92.671 918.162 92.575C918.164 92.167 918.129 91.7829 918.058 91.4227C917.845 90.342 917.656 89.5974 917.489 89.1889C917.322 88.7804 917.059 88.4556 916.7 88.2145L917.136 86.7758C917.568 86.8492 917.892 86.8982 918.108 86.9228C918.324 86.9475 918.636 86.9604 919.044 86.9617C920.46 86.966 922.225 86.6235 924.339 85.9339L925.492 85.4695L926.678 86.1571L925.918 87.3788C925.701 87.8341 925.532 88.3136 925.41 88.8172C925.288 89.3209 925.19 89.9566 925.116 90.7244L925.005 91.876L924.967 92.4879C925.518 92.6096 926.022 92.6711 926.478 92.6725C927.582 92.6759 928.663 92.4152 929.721 91.8905C929.889 91.795 930.009 91.7354 930.081 91.7116C930.225 91.64 930.406 91.5086 930.622 91.3173C931.028 91.9905 931.23 92.6991 931.228 93.4431C931.223 95.1471 930.727 96.3576 929.741 97.0746C929.188 97.4329 928.647 97.6112 928.119 97.6096C927.903 97.6089 927.639 97.5841 927.327 97.5352C927.039 97.4863 926.787 97.4495 926.572 97.4249L924.736 97.1312L924.712 105.015L924.995 106.888C925.112 107.776 925.278 108.365 925.493 108.654C925.732 108.918 926.152 109.052 926.752 109.053C927.16 109.055 927.52 108.936 927.833 108.697C928.146 108.458 928.327 108.158 928.376 107.798C928.449 107.415 928.486 107.103 928.487 106.863C928.489 106.071 928.178 105.65 927.554 105.6C926.955 105.526 926.619 105.465 926.547 105.417C926.379 105.296 926.212 105.044 926.045 104.659C925.903 104.275 925.832 103.915 925.833 103.579C925.834 103.003 926.052 102.499 926.485 102.069C926.919 101.638 927.556 101.352 928.396 101.21C928.78 101.164 929.068 101.141 929.26 101.141C930.7 101.146 931.814 101.821 932.602 103.167L932.924 103.852ZM956.187 100.936C956.182 102.616 955.998 103.995 955.635 105.074C955.271 106.129 954.692 107.099 953.898 107.985C952.91 109.086 951.624 109.862 950.038 110.313C949.198 110.526 948.405 110.632 947.661 110.63C945.885 110.624 944.279 110.055 942.843 108.923L942.659 110.218C942.654 111.706 942.806 112.931 943.115 113.892C943.448 114.877 944.022 115.731 944.836 116.453L944.112 117.711C943.465 117.373 942.685 117.142 941.774 117.02C940.862 116.921 939.626 116.869 938.066 116.864C936.89 116.981 935.725 117.253 934.572 117.682L933.713 116.131C934.29 115.701 934.711 115.186 934.977 114.587C935.267 113.988 935.546 112.944 935.815 111.457C935.864 111.097 935.926 110.51 936 109.694C936.075 108.878 936.113 108.17 936.115 107.57L936.119 106.31L936.123 104.942L936.126 103.79L936.095 102.35C936.098 101.366 936.088 100.658 936.065 100.226C936.043 99.7699 935.996 99.2298 935.926 98.6056C935.741 96.373 935.518 94.8603 935.256 94.0675C934.995 93.2507 934.541 92.5653 933.895 92.0113L934.69 90.8257C935.457 91.1401 936.165 91.3703 936.812 91.5163C937.46 91.6382 938.204 91.7005 939.044 91.7031C939.956 91.7059 941.54 91.6148 943.796 91.4297L945.201 91.29C945.345 91.2664 945.489 91.2549 945.633 91.2553C945.825 91.2559 945.957 91.2563 946.029 91.2565C946.413 91.2577 946.689 91.2586 946.857 91.2591C947.553 91.2612 948.129 91.311 948.584 91.4084C949.04 91.5058 949.604 91.6875 950.275 91.9536C951.545 92.5095 952.575 93.1846 953.365 93.9791C954.178 94.7496 954.847 95.7476 955.371 96.9732C955.92 98.1989 956.192 99.5198 956.187 100.936ZM948.556 100.588L948.557 100.192L948.524 99.4002C948.526 98.7762 948.503 98.2482 948.457 97.816C948.41 97.3839 948.363 97.0357 948.316 96.7716C948.175 95.9072 948.033 95.2587 947.89 94.8263C947.747 94.3698 947.557 93.9972 947.317 93.7085C946.959 93.2754 946.467 93.0579 945.843 93.056C945.075 93.0536 944.45 93.3757 943.968 94.0222C943.752 94.3096 943.57 94.681 943.425 95.1366C943.304 95.5922 943.194 96.2039 943.095 96.9716L942.985 97.8352L942.834 99.9228L942.933 102.839C943.049 104.159 943.178 105.108 943.321 105.684C943.487 106.261 943.749 106.766 944.108 107.199C944.61 107.776 945.209 108.066 945.905 108.068C946.313 108.069 946.65 107.963 946.914 107.747C947.275 107.46 947.552 107.053 947.746 106.526C947.964 105.999 948.182 105.147 948.402 103.972C948.451 103.612 948.489 103.12 948.514 102.496C948.54 101.872 948.554 101.236 948.556 100.588Z" fill="white"/>
<rect x="0.639088" y="287.045" width="206.083" height="44.8883" rx="22.4442" transform="rotate(0.175868 0.639088 287.045)" fill="#363636" stroke="white"/>
<rect x="8.10491" y="293.141" width="190.93" height="32.7414" rx="16.3707" transform="rotate(0.175868 8.10491 293.141)" fill="#363636" stroke="white"/>
<path d="M82.0208 294.622C82.1393 295.103 82.198 295.547 82.1967 295.955C82.1949 296.531 82.073 297.154 81.831 297.826C81.3227 299.216 80.5754 300.282 79.5891 301.023C78.6269 301.764 77.3897 302.132 75.8777 302.127L75.0497 302.125L75.041 304.969L75.0324 307.777L75.0954 310.693L75.1299 311.197L75.2668 313.502C75.2621 315.038 75.4147 316.142 75.7246 316.815C76.0346 317.488 76.7042 318.27 77.7335 319.161L78.2362 319.559L77.5465 321.429L77.0429 321.283L76.3956 321.065L75.8921 320.92L75.2086 320.737C74.0336 320.422 72.9301 320.262 71.8981 320.259C71.4181 320.258 70.89 320.292 70.3137 320.362L68.5492 320.537C67.5408 320.654 66.8565 320.748 66.4963 320.819C66.136 320.914 65.6555 321.092 65.0547 321.354L64.0885 319.443C65.5307 318.752 66.3861 317.626 66.6549 316.067C66.9477 314.508 67.1038 310.549 67.1234 304.189L67.0208 302.424L66.9861 301.992L66.8811 301.02C66.6653 300.947 66.4615 300.887 66.2696 300.838C66.1019 300.765 65.8621 300.705 65.5502 300.656C65.2384 300.583 64.8186 300.533 64.2906 300.508C63.7867 300.482 63.3308 300.469 62.9228 300.468C61.6748 300.464 60.7262 300.641 60.0771 300.999C59.428 301.357 58.9946 301.824 58.7768 302.399C58.5831 302.95 58.4857 303.43 58.4844 303.838C58.4834 304.174 58.5425 304.462 58.6617 304.703C58.9241 305.231 59.3433 305.497 59.9193 305.498C60.1593 305.499 60.4115 305.428 60.676 305.285C60.9405 305.118 61.0733 304.842 61.0745 304.458C61.0749 304.338 61.0274 304.182 60.9319 303.99C60.7409 303.677 60.4534 303.52 60.0694 303.519C60.1664 303.183 60.3713 302.884 60.6841 302.621C61.0932 302.286 61.6097 302.12 62.2337 302.122C62.4977 302.122 62.8456 302.147 63.2775 302.197C63.7093 302.246 64.1285 302.511 64.535 302.993C64.9656 303.45 65.1798 304.039 65.1776 304.759C65.1762 305.215 65.0908 305.682 64.9213 306.162C64.6549 306.929 64.2211 307.528 63.6198 307.958C63.0185 308.364 62.2259 308.566 61.2419 308.563C59.9939 308.559 58.9511 308.172 58.1135 307.401C57.2759 306.606 56.7035 305.429 56.3963 303.868C56.3017 303.411 56.2553 302.895 56.2571 302.319C56.2579 302.031 56.2706 301.815 56.295 301.671C56.5903 299.32 57.5556 297.571 59.1912 296.424C60.9469 295.206 63.5768 294.602 67.0808 294.612C67.8968 294.615 68.4607 294.629 68.7726 294.654C69.1086 294.679 69.8043 294.765 70.8599 294.912L71.7594 295.059L73.5946 295.316L74.6742 295.464C75.514 295.538 76.2578 295.577 76.9058 295.579C78.7298 295.584 80.4348 295.265 82.0208 294.622ZM119.528 296.861C118.254 297.505 117.231 298.39 116.46 299.516C115.689 300.618 115 302.224 114.393 304.334L114.284 304.729L113.628 307.247L112.828 310.053L112.498 311.744L112.425 312.212L112.133 313.471L111.987 314.154C111.913 314.802 111.875 315.306 111.874 315.666C111.874 315.858 111.873 315.99 111.873 316.062C111.87 316.998 111.976 317.718 112.19 318.223C112.429 318.728 112.8 319.161 113.302 319.522L112.829 321.465L111.425 321.245C110.106 321.049 109.038 320.925 108.222 320.875C107.431 320.8 106.627 320.762 105.811 320.759C105.115 320.757 104.442 320.815 103.794 320.933C103.146 321.075 102.437 321.253 101.668 321.467L101.134 319.521C101.663 319.187 102.049 318.78 102.29 318.301C102.532 317.821 102.654 317.174 102.656 316.358C102.658 315.71 102.6 315.05 102.482 314.377C102.364 313.705 102.151 312.804 101.843 311.675C101.486 310.546 101.129 309.609 100.771 308.864L100.628 308.431L100.414 307.999C100.173 308.406 100.004 308.742 99.9067 309.005L99.4347 310.3L99.2893 310.767L98.8172 312.098C98.7203 312.386 98.6476 312.625 98.599 312.817C98.4293 313.369 98.3202 313.74 98.2716 313.932L98.1616 314.58C98.0395 315.252 97.954 315.743 97.9051 316.055C97.8801 316.367 97.8671 316.691 97.8661 317.027C97.8638 317.771 98.1856 318.48 98.8315 319.154L99.1186 319.479L98.4641 321.565C97.7452 321.227 97.014 320.972 96.2705 320.802C95.551 320.632 94.7353 320.545 93.8233 320.543C93.5353 320.542 93.2593 320.541 92.9953 320.54C92.7313 320.539 92.4072 320.562 92.023 320.609C91.2551 320.607 90.4507 320.724 89.61 320.962C89.3697 321.033 88.8892 321.199 88.1684 321.461L87.6716 319.12C88.1285 318.833 88.4535 318.486 88.6468 318.079C88.8641 317.647 88.9739 317.06 88.9762 316.316C88.9793 315.308 88.7792 314.023 88.376 312.462L87.8429 310.228L87.7361 309.832L87.2016 308.03L86.5246 305.76L86.3106 305.111L86.2036 304.787L85.168 302.048L84.8823 301.291L84.6327 300.498C84.2521 299.393 83.8108 298.54 83.3086 297.938C82.8064 297.337 82.1718 296.879 81.4048 296.564L82.1303 294.767C82.6336 295.008 83.125 295.19 83.6047 295.311C84.1084 295.409 84.7442 295.459 85.5122 295.461L86.952 295.537L87.5639 295.575C88.0919 295.577 88.4759 295.578 88.7159 295.579C89.2199 295.58 89.6999 295.57 90.156 295.547C90.636 295.525 91.1042 295.478 91.5604 295.408C92.0166 295.337 92.4608 295.266 92.8931 295.196C93.3253 295.125 93.7576 295.018 94.19 294.876L95.0493 296.426C93.9906 297.311 93.4591 298.437 93.4549 299.805C93.4542 300.045 93.4654 300.309 93.4885 300.597C93.5116 300.886 93.5587 301.174 93.6298 301.462L94.1974 304.2C94.6003 305.857 94.9444 307.154 95.2295 308.091C95.5386 309.028 95.8958 309.929 96.3012 310.794L96.8094 309.428L97.3918 307.341L97.6462 306.55L98.1551 304.968L98.3736 304.14C98.6173 302.941 98.7403 301.97 98.7426 301.226C98.7457 300.194 98.3645 299.292 97.5989 298.522L97.1681 298.125L97.9285 296.687C99.1509 297.219 100.806 297.488 102.894 297.494L104.046 297.426L106.531 297.037L106.82 297.002L107.756 296.861L108.327 298.375C107.966 298.686 107.701 299.021 107.532 299.381C107.363 299.716 107.278 300.148 107.276 300.676C107.275 301.252 107.38 302.032 107.593 303.017L107.735 303.737L108.02 304.818L108.34 305.899C108.839 307.605 109.386 309.166 109.982 310.584C110.321 309.457 110.576 308.522 110.747 307.778L110.892 307.203L111.221 305.548L111.405 304.396L111.624 303.245C111.697 302.909 111.747 302.562 111.772 302.202C111.797 301.842 111.81 301.47 111.811 301.086C111.812 300.63 111.789 300.306 111.742 300.114C111.53 298.913 111.208 298.108 110.777 297.699L109.484 296.795L109.305 296.65L108.802 296.288L109.634 294.851C110.977 295.263 112.176 295.471 113.232 295.474L115.069 295.408C116.125 295.411 116.821 295.389 117.157 295.342C117.493 295.295 117.961 295.141 118.562 294.878L119.528 296.861ZM147.596 320.024L146.836 321.533L145.937 321.243C144.81 320.855 143.863 320.624 143.095 320.55C142.327 320.451 141.283 320.4 139.963 320.396C139.123 320.394 138.343 320.487 137.622 320.677C136.902 320.867 136.145 321.141 135.352 321.498L133.88 320.09L134.061 319.874L134.458 319.443C134.94 318.893 135.253 318.39 135.399 317.934C135.568 317.455 135.654 316.795 135.657 315.955L135.659 315.271L135.623 315.163L135.376 313.686L135.305 313.434L135.127 312.497L134.838 312.892C134.26 313.587 133.731 314.077 133.25 314.364C132.769 314.65 132.216 314.792 131.592 314.791C131.28 314.79 130.885 314.752 130.405 314.679C129.949 314.605 129.422 314.4 128.823 314.062L128.104 313.556L127.992 314.779C127.986 316.963 129.037 318.599 131.145 319.685L131.541 319.866L130.564 321.447L129.449 320.976C128.73 320.71 127.951 320.527 127.111 320.429C126.271 320.306 125.468 320.244 124.7 320.241C123.692 320.238 122.959 320.332 122.503 320.523C122.07 320.689 121.673 321 121.312 321.455L119.912 320.047L120.707 319.221C121.694 318.096 122.453 317.102 122.984 316.24C123.539 315.354 123.998 314.431 124.36 313.472C124.627 312.681 124.821 311.926 124.943 311.206C124.537 310.845 124.105 310.664 123.649 310.662C122.809 310.66 122.208 311.066 121.845 311.881L121.627 312.492C120.333 311.96 119.688 310.854 119.694 309.174C119.695 308.838 119.732 308.454 119.805 308.022C119.878 307.591 120.024 307.207 120.241 306.872C120.699 306.057 121.277 305.459 121.974 305.077C122.695 304.671 123.596 304.47 124.676 304.473C124.892 304.474 125.156 304.499 125.468 304.548C125.78 304.573 126.02 304.597 126.188 304.622L126.655 304.731L126.982 303.796C127.395 302.358 127.602 301.146 127.605 300.162C127.609 299.01 127.276 297.953 126.607 296.991L126.033 296.305L126.937 295.012C127.992 295.423 128.831 295.678 129.455 295.776C130.078 295.874 130.846 295.924 131.758 295.927C131.902 295.951 132.034 295.964 132.154 295.964C132.298 295.965 132.454 295.965 132.622 295.966C132.886 295.966 133.162 295.967 133.45 295.968C133.738 295.969 134.05 295.958 134.386 295.935L135.215 295.866L136.223 295.797C137.183 295.8 138.047 295.682 138.816 295.445C138.864 295.421 139.308 295.254 140.149 294.945L141.334 296.172L140.972 296.603C140.442 297.298 140.176 298.065 140.173 298.905C140.171 299.649 140.347 301.065 140.7 303.154C140.865 304.259 141.161 305.52 141.589 306.937L142.48 309.82L142.801 310.793L143.371 312.703C143.727 313.832 144.084 314.805 144.442 315.622C144.8 316.415 145.229 317.16 145.731 317.858C145.994 318.243 146.281 318.616 146.592 318.977C146.903 319.338 147.237 319.687 147.596 320.024ZM134.272 309.795C134.296 309.579 134.285 309.327 134.238 309.039C134.191 308.726 134.085 308.258 133.918 307.634L133.42 305.652L133.385 305.508L133.029 304.319L132.779 303.454L131.494 299.922L130.558 299.955L130.412 300.639L130.265 301.466L130.119 302.33L129.972 303.049L129.572 304.56C129.354 305.28 129.244 305.783 129.243 306.071C129.242 306.335 129.302 306.575 129.421 306.792C129.588 307.008 129.72 307.189 129.815 307.333L130.783 308.704L130.891 308.884L131.895 310.183C132.11 310.472 132.397 310.689 132.757 310.834C132.9 310.906 133.056 310.943 133.224 310.943C133.488 310.944 133.729 310.837 133.945 310.622C134.162 310.406 134.271 310.131 134.272 309.795Z" fill="white"/>
<defs>
<filter id="filter0_d_1660_560" x="81.644" y="16.3799" width="889.899" height="396.522" filterUnits="userSpaceOnUse" color-interpolation-filters="sRGB">
<feFlood flood-opacity="0" result="BackgroundImageFix"/>
<feColorMatrix in="SourceAlpha" type="matrix" values="0 0 0 0 0 0 0 0 0 0 0 0 0 0 0 0 0 0 127 0" result="hardAlpha"/>
<feOffset dx="11" dy="12"/>
<feComposite in2="hardAlpha" operator="out"/>
<feColorMatrix type="matrix" values="0 0 0 0 0.858824 0 0 0 0 0.67451 0 0 0 0 0.509804 0 0 0 1 0"/>
<feBlend mode="normal" in2="BackgroundImageFix" result="effect1_dropShadow_1660_560"/>
<feBlend mode="normal" in="SourceGraphic" in2="effect1_dropShadow_1660_560" result="shape"/>
</filter>
</defs>
</svg>
