<svg width="33" height="33" viewBox="0 0 33 33" fill="none" xmlns="http://www.w3.org/2000/svg">
<path d="M16.5 24.0905C22.11 24.0905 25.74 21.4505 25.74 21.4505C25.74 21.4505 24.75 23.7605 21.78 24.7505L22.77 26.4005C27.8899 26.2355 30.03 22.8176 30.03 22.8176C30.03 15.2276 26.6937 9.07578 26.6937 9.07578C23.3574 6.53016 20.1835 6.60078 20.1835 6.60078L19.8 6.93045C23.7386 8.15607 25.41 10.2305 25.41 10.2305C23.0007 8.88702 20.13 7.92045 16.5 7.92045C12.87 7.92045 9.99933 8.88702 7.59 10.2305C7.59 10.2305 9.26145 8.15607 13.2 6.93045L12.8162 6.60078C12.8162 6.60078 9.64227 6.53016 6.30597 9.07578C6.30597 9.07578 2.96967 15.228 2.96967 22.8176C2.96967 22.8176 5.10972 26.2355 10.2297 26.4005L11.2197 24.7505C8.24967 23.7605 7.25967 21.4505 7.25967 21.4505C7.25967 21.4505 10.89 24.0905 16.5 24.0905Z" fill="#252525"/>
<path d="M20.625 20.7898C21.9919 20.7898 23.1 19.6078 23.1 18.1498C23.1 16.6917 21.9919 15.5098 20.625 15.5098C19.2581 15.5098 18.15 16.6917 18.15 18.1498C18.15 19.6078 19.2581 20.7898 20.625 20.7898Z" fill="white"/>
<path d="M12.375 20.7898C13.7419 20.7898 14.85 19.6078 14.85 18.1498C14.85 16.6917 13.7419 15.5098 12.375 15.5098C11.0081 15.5098 9.9 16.6917 9.9 18.1498C9.9 19.6078 11.0081 20.7898 12.375 20.7898Z" fill="white"/>
<path d="M22.77 26.7296C22.6542 26.7296 22.5466 26.6688 22.4872 26.5695L21.4972 24.9195C21.4457 24.8337 21.4358 24.7291 21.4708 24.635C21.5051 24.5413 21.581 24.4684 21.6757 24.4364C23.1148 23.9566 24.0666 23.151 24.6526 22.4788C23.1073 23.2794 20.2481 24.4196 16.5 24.4196C12.7575 24.4196 9.90165 23.283 8.35461 22.4828C8.94267 23.155 9.89373 23.9599 11.3243 24.4364C11.419 24.4681 11.4949 24.541 11.5292 24.635C11.5639 24.7291 11.5543 24.8337 11.5028 24.9195L10.5128 26.5695C10.4511 26.6721 10.3323 26.7358 10.2191 26.7296C4.98366 26.5606 2.78157 23.1375 2.69016 22.992C2.65749 22.9395 2.64 22.8788 2.64 22.8167C2.64 15.2307 5.98224 8.97952 6.0159 8.91748C6.03801 8.87623 6.0687 8.84059 6.10566 8.81254C9.49608 6.22534 12.6875 6.26725 12.8231 6.26989C12.8994 6.27154 12.973 6.29959 13.0307 6.34942L13.4145 6.67942C13.5056 6.75763 13.5468 6.87907 13.5227 6.99655C13.4983 7.11403 13.4122 7.20907 13.2973 7.24471C11.849 7.69549 10.7154 8.26342 9.86568 8.79538C11.9655 7.98622 14.1557 7.58956 16.5 7.58956C18.8407 7.58956 21.0276 7.98457 23.1238 8.79142C22.2737 8.26012 21.1421 7.69285 19.702 7.24471C19.5871 7.20907 19.5013 7.11403 19.4766 6.99655C19.4525 6.87907 19.4938 6.75763 19.5848 6.67942L19.9686 6.34942C20.0264 6.29959 20.0996 6.27154 20.1762 6.26989C20.3112 6.26791 23.5029 6.22501 26.8937 8.81254C26.9306 8.84059 26.9613 8.87656 26.9834 8.91748C27.0178 8.97952 30.36 15.2307 30.36 22.8167C30.36 22.8788 30.3425 22.9395 30.3098 22.992C30.2184 23.1375 28.0163 26.5606 22.7806 26.7296C22.7769 26.7296 22.7736 26.7296 22.77 26.7296ZM22.2691 24.9235L22.9518 26.0616C27.2765 25.8471 29.3571 23.1953 29.6993 22.7151C29.6713 15.7379 26.7755 9.94807 26.4356 9.29335C24.2203 7.62256 22.0819 7.13218 20.9735 6.98863C24.1963 8.23306 25.6021 9.94279 25.6664 10.0223C25.7657 10.1454 25.7638 10.3213 25.6618 10.4421C25.5598 10.5629 25.3866 10.5945 25.2486 10.5176C22.5119 8.99173 19.6502 8.24956 16.5 8.24956C13.3498 8.24956 10.4881 8.99173 7.75071 10.518C7.6131 10.5949 7.43952 10.5632 7.33755 10.4424C7.23558 10.3216 7.23393 10.1457 7.33293 10.0226C7.39662 9.94312 8.80143 8.23504 12.0199 6.99094C10.9078 7.13713 8.7681 7.63081 6.5637 9.29335C6.22413 9.94906 3.32805 15.7455 3.3 22.7154C3.64221 23.1959 5.72286 25.8475 10.0475 26.062L10.7303 24.9238C7.95234 23.8394 6.99699 21.6753 6.95607 21.5799C6.89733 21.4433 6.93726 21.2849 7.05342 21.1922C7.16958 21.0994 7.33359 21.0958 7.45338 21.1829C7.48935 21.2083 11.0728 23.7596 16.5 23.7596C21.9272 23.7596 25.5106 21.2083 25.546 21.1826C25.6661 21.0955 25.8301 21.0991 25.9459 21.1918C26.0621 21.2846 26.102 21.443 26.0433 21.5796C26.0023 21.6753 25.047 23.8394 22.2691 24.9235Z" fill="white"/>
<path d="M20.625 21.1197C19.0783 21.1197 17.82 19.7871 17.82 18.1497C17.82 16.5122 19.0783 15.1797 20.625 15.1797C22.1717 15.1797 23.43 16.5122 23.43 18.1497C23.43 19.7871 22.1717 21.1197 20.625 21.1197ZM20.625 15.8397C19.4423 15.8397 18.48 16.8759 18.48 18.1497C18.48 19.4235 19.4423 20.4597 20.625 20.4597C21.8077 20.4597 22.77 19.4235 22.77 18.1497C22.77 16.8759 21.8077 15.8397 20.625 15.8397Z" fill="white"/>
<path d="M12.375 21.1197C10.8283 21.1197 9.57 19.7871 9.57 18.1497C9.57 16.5122 10.8283 15.1797 12.375 15.1797C13.9217 15.1797 15.18 16.5122 15.18 18.1497C15.18 19.7871 13.9217 21.1197 12.375 21.1197ZM12.375 15.8397C11.1923 15.8397 10.23 16.8759 10.23 18.1497C10.23 19.4235 11.1923 20.4597 12.375 20.4597C13.5577 20.4597 14.52 19.4235 14.52 18.1497C14.52 16.8759 13.5577 15.8397 12.375 15.8397Z" fill="white"/>
<path d="M24.585 11.6393C24.5579 11.6393 24.5306 11.6327 24.5055 11.6188C24.4434 11.5845 24.3807 11.5535 24.3184 11.5224L24.1788 11.4518C24.0979 11.4096 24.0666 11.3099 24.1088 11.2291C24.1514 11.1485 24.252 11.1172 24.3316 11.1594L24.4652 11.2271C24.5319 11.2604 24.5985 11.2934 24.6645 11.33C24.7444 11.3739 24.7734 11.4743 24.7295 11.5541C24.6995 11.6082 24.6431 11.6393 24.585 11.6393Z" fill="white"/>
<path d="M23.595 11.1361C23.5716 11.1361 23.5471 11.1312 23.5247 11.1203C23.0122 10.8791 22.4776 10.6632 21.8912 10.4603C21.8047 10.4306 21.7595 10.3365 21.7889 10.2504C21.8186 10.1646 21.9133 10.1194 21.9988 10.1484C22.5971 10.355 23.1419 10.5755 23.6653 10.822C23.7478 10.8609 23.7831 10.9592 23.7442 11.0414C23.7161 11.1011 23.657 11.1361 23.595 11.1361Z" fill="white"/>
<path d="M8.415 11.6397C8.35692 11.6397 8.30016 11.6086 8.27046 11.5542C8.22657 11.4743 8.25594 11.374 8.33547 11.3301C10.8953 9.92366 13.5656 9.24023 16.5 9.24023C18.1837 9.24023 19.764 9.4676 21.3322 9.93521C21.4196 9.96128 21.4691 10.053 21.4434 10.1405C21.4173 10.2276 21.3253 10.2781 21.2381 10.2514C19.7007 9.79298 18.151 9.57023 16.5 9.57023C13.6227 9.57023 11.0042 10.2405 8.49453 11.6189C8.46912 11.6327 8.44206 11.6397 8.415 11.6397Z" fill="white"/>
</svg>
