<svg width="23" height="23" viewBox="0 0 23 23" fill="none" xmlns="http://www.w3.org/2000/svg">
<g clip-path="url(#clip0_1319_39)">
<path d="M19.585 9.14341C19.5609 9.04816 19.5181 8.95865 19.4591 8.88007C19.4001 8.80149 19.3261 8.73542 19.2414 8.6857C19.1567 8.63597 19.0629 8.60359 18.9655 8.59042C18.8682 8.57725 18.7691 8.58356 18.6742 8.60899C18.5793 8.63442 18.4904 8.67846 18.4127 8.73854C18.335 8.79863 18.27 8.87356 18.2214 8.959C18.1729 9.04443 18.1419 9.13865 18.1301 9.23619C18.1183 9.33373 18.126 9.43264 18.1528 9.52717C19.1618 13.2928 16.9383 17.144 13.1726 18.153C9.40695 19.162 5.55579 16.9386 4.54678 13.1729C3.53777 9.40721 5.76124 5.55605 9.52691 4.54704C11.4875 4.0217 13.4692 4.37644 15.0635 5.36606L13.6831 5.73596C13.5878 5.76004 13.4983 5.80282 13.4197 5.8618C13.3411 5.92078 13.2751 5.99479 13.2254 6.07952C13.1756 6.16426 13.1432 6.25804 13.1301 6.3554C13.1169 6.45276 13.1232 6.55177 13.1486 6.64667C13.1741 6.74157 13.2181 6.83048 13.2782 6.90821C13.3383 6.98594 13.4132 7.05096 13.4987 7.09948C13.5841 7.14801 13.6783 7.17906 13.7758 7.19086C13.8734 7.20265 13.9723 7.19493 14.0668 7.16816L18.0054 6.11283L16.9501 2.17426C16.926 2.07901 16.8832 1.98949 16.8242 1.91091C16.7652 1.83234 16.6912 1.76627 16.6065 1.71654C16.5218 1.66682 16.428 1.63443 16.3306 1.62126C16.2333 1.60809 16.1342 1.6144 16.0393 1.63983C15.9444 1.66526 15.8555 1.7093 15.7778 1.76939C15.7001 1.82947 15.6351 1.90441 15.5865 1.98984C15.538 2.07527 15.507 2.16949 15.4952 2.26703C15.4834 2.36457 15.4911 2.46348 15.5179 2.55802L15.952 4.17834C14.0017 2.92847 11.552 2.46938 9.14315 3.11484C4.60346 4.33124 1.89817 9.01695 3.11458 13.5566C4.33098 18.0963 9.01669 20.8016 13.5564 19.5852C18.0961 18.3688 20.8014 13.6831 19.585 9.14341Z" fill="white"/>
</g>
<defs>
<clipPath id="clip0_1319_39">
<rect width="18.5341" height="18.5341" fill="white" transform="translate(17.9026) rotate(75)"/>
</clipPath>
</defs>
</svg>
