<svg width="25" height="23" viewBox="0 0 25 23" fill="none" xmlns="http://www.w3.org/2000/svg">
<path d="M21.7498 22.6875H3.00016C1.34346 22.6875 0 21.456 0 19.9373V2.75015C0 1.23151 1.34346 0 3.00016 0H21.7498C23.4065 0 24.75 1.23151 24.75 2.75015V19.9373C24.75 21.456 23.4065 22.6875 21.7498 22.6875Z" fill="#252525"/>
<path d="M21.9026 21.1875H15.9156L2.90259 2.1875H8.88962L21.9026 21.1875ZM16.6289 19.5763H19.0128L8.17623 3.7987H5.7924L16.6289 19.5763Z" fill="white"/>
<path d="M4.89123 21.1875L11.9026 13.3593L10.9857 12.1875L2.90259 21.1875H4.89123Z" fill="white"/>
<path d="M12.9026 9.89993L13.7361 11.1875L20.9026 2.1875H19.0605L12.9026 9.89993Z" fill="white"/>
</svg>
